<svg width="512" height="512" viewBox="0 0 512 512" fill="none" xmlns="http://www.w3.org/2000/svg">
<rect width="512" height="512" transform="matrix(-1 0 0 1 512 0)" fill="white"/>
<path d="M158.283 76.8C179.908 76.8 200.089 83.1085 217.05 93.9889L219.001 95.268C226.037 99.9964 232.489 105.524 238.229 111.719C241.801 115.573 241.021 121.584 236.872 124.808V124.808V124.808C232.722 128.031 226.779 127.239 223.138 123.451C218.683 118.817 213.737 114.66 208.385 111.063L206.777 110.004C192.79 101.031 176.158 95.8285 158.283 95.8285H121.428C115.773 95.8285 111.188 100.413 111.188 106.069V406.726C111.188 412.382 115.773 416.966 121.428 416.966H158.283C207.957 416.966 248.225 376.7 248.226 327.027C248.226 318.852 241.814 312.197 233.756 311.789L232.972 311.77H213.563C184.807 311.77 158.15 290.557 155.762 260.743L155.666 259.315L155.663 259.296L155.607 257.807C154.814 226.597 179.898 200.993 210.961 200.993C241.56 200.994 266.334 225.809 266.334 256.366C266.335 279.241 287.388 297.174 311.344 291.71C324.339 288.748 335.029 278.083 337.991 265.073C337.991 265.07 337.992 265.068 337.993 265.066V265.066C337.994 265.064 337.995 265.062 337.996 265.06C343.456 241.135 325.519 220.053 302.648 220.053H281.587C262.673 220.052 247.306 204.731 247.306 185.768C247.307 125.585 296.094 76.8 356.277 76.8H399.36C412.085 76.8 422.4 87.1153 422.4 99.84V412.955C422.4 425.679 412.085 435.995 399.36 435.995H356.277C334.652 435.995 314.471 429.686 297.51 418.806L295.558 417.527C288.523 412.798 282.071 407.271 276.331 401.076C272.759 397.221 273.538 391.211 277.688 387.987V387.987V387.987C281.838 384.764 287.781 385.556 291.422 389.344C295.877 393.977 300.823 398.134 306.175 401.732L307.783 402.791C321.77 411.763 338.402 416.966 356.277 416.966H393.131C398.787 416.966 403.371 412.382 403.371 406.726V106.069C403.371 100.413 398.787 95.8285 393.131 95.8285H356.277C306.603 95.8285 266.335 136.095 266.334 185.768C266.334 194.206 273.166 201.024 281.587 201.024H302.648C337.491 201.025 364.778 233.217 356.546 269.291L356.082 271.17C350.938 290.455 335.061 305.82 315.578 310.262L313.887 310.624C278.471 317.645 247.306 290.665 247.306 256.366C247.305 236.309 231.042 220.022 210.961 220.022C190.259 220.022 173.596 237.352 174.666 258.299L174.725 259.194C176.237 277.938 193.431 292.742 213.563 292.742H233.006C251.906 292.761 267.254 308.075 267.254 327.027C267.253 387.21 218.466 435.995 158.283 435.995H115.2C102.475 435.995 92.1599 425.679 92.1599 412.955V99.84C92.1599 87.1154 102.475 76.8 115.2 76.8H158.283Z" fill="black"/>
</svg>
